<svg xmlns="http://www.w3.org/2000/svg" viewBox="0 0 1704 786">
  <defs>
    <linearGradient id="sky" x1="0" y1="0" x2="0" y2="1"><stop stop-color="#071726"/><stop offset=".55" stop-color="#060811"/><stop offset="1" stop-color="#020306"/></linearGradient>
    <linearGradient id="ice" x1="0" y1="0" x2="0" y2="1"><stop stop-color="#1a2f36"/><stop offset="1" stop-color="#080c12"/></linearGradient>
    <filter id="g"><feGaussianBlur stdDeviation="7" result="b"/><feMerge><feMergeNode in="b"/><feMergeNode in="SourceGraphic"/></feMerge></filter>
  </defs>
  <rect width="1704" height="786" fill="url(#sky)"/>
  <path d="M0 526 C230 452 486 420 760 466 C1028 512 1246 430 1704 418 L1704 786 L0 786 Z" fill="url(#ice)"/>
  <g fill="none" stroke="#73dfff" stroke-width="4" filter="url(#g)" opacity=".72">
    <path d="M110 704 C416 620 708 628 904 678 C1140 738 1398 630 1652 660"/>
    <path d="M274 780 L436 544 L612 734 L714 500 L928 754 L1056 506 L1276 742 L1466 522"/>
    <ellipse cx="840" cy="640" rx="300" ry="78"/>
  </g>
  <g transform="translate(1268 224)">
    <path d="M0 0 L210 -18 L210 128 L0 154 Z" fill="#071014" stroke="#8bdfff" stroke-width="7"/>
    <ellipse cx="105" cy="140" rx="92" ry="20" fill="none" stroke="#78dfff" stroke-width="8"/>
    <path d="M44 140 C74 205 136 205 166 140" fill="none" stroke="#cceeff" stroke-width="5"/>
    <path d="M78 2 C64 42 86 52 72 90 M132 -6 C116 38 144 52 122 94" stroke="#6ff2ff" stroke-width="8" fill="none" filter="url(#g)"/>
  </g>
  <g fill="#b8f5ff" opacity=".55">
    <path d="M220 322 L254 244 L286 322 Z"/><path d="M408 282 L438 198 L468 282 Z"/>
    <path d="M1456 318 L1494 224 L1530 318 Z"/><path d="M1010 286 L1038 210 L1066 286 Z"/>
  </g>
  <g fill="#78e8ff" filter="url(#g)" opacity=".9">
    <circle cx="210" cy="584" r="5"/><circle cx="568" cy="534" r="6"/><circle cx="1134" cy="506" r="7"/><circle cx="1510" cy="552" r="5"/>
  </g>
</svg>
