<svg xmlns="http://www.w3.org/2000/svg" viewBox="0 0 1704 786">
  <defs>
    <linearGradient id="bg" x1="0" y1="0" x2="0" y2="1"><stop stop-color="#1b0626"/><stop offset=".5" stop-color="#061112"/><stop offset="1" stop-color="#030203"/></linearGradient>
    <linearGradient id="floor" x1="0" y1="0" x2="0" y2="1"><stop stop-color="#25131c"/><stop offset="1" stop-color="#050406"/></linearGradient>
    <filter id="g"><feGaussianBlur stdDeviation="7" result="b"/><feMerge><feMergeNode in="b"/><feMergeNode in="SourceGraphic"/></feMerge></filter>
  </defs>
  <rect width="1704" height="786" fill="url(#bg)"/>
  <g fill="#08060a" stroke="#5b3c62" stroke-width="5">
    <path d="M128 520 L210 206 L294 520 Z"/><path d="M380 522 L472 128 L560 522 Z"/>
    <path d="M1104 522 L1198 138 L1284 522 Z"/><path d="M1430 526 L1516 190 L1606 526 Z"/>
  </g>
  <path d="M0 528 C270 420 526 434 782 498 C1080 572 1304 428 1704 456 L1704 786 L0 786 Z" fill="url(#floor)"/>
  <g fill="none" stroke="#d7a945" stroke-width="4" opacity=".5">
    <path d="M188 522 C250 400 260 318 212 206 M448 522 C506 374 520 250 472 128 M1184 522 C1238 370 1244 248 1198 138 M1498 526 C1548 408 1558 286 1516 190"/>
  </g>
  <g fill="none" stroke-width="5" filter="url(#g)" opacity=".72">
    <path d="M0 662 C248 606 506 612 770 666 C1036 720 1298 610 1704 642" stroke="#8fff22"/>
    <path d="M312 706 L502 520 L718 714 L906 498 L1138 714 L1338 526" stroke="#a86cff"/>
    <ellipse cx="850" cy="650" rx="300" ry="84" stroke="#73dfff"/>
  </g>
  <g transform="translate(1248 218)">
    <path d="M0 0 L232 -40 L232 128 L0 160 Z" fill="#09060b" stroke="#d7a945" stroke-width="8"/>
    <ellipse cx="116" cy="158" rx="98" ry="22" fill="none" stroke="#c04cff" stroke-width="9"/>
    <path d="M42 158 C74 224 158 224 190 158" fill="none" stroke="#8fff22" stroke-width="5"/>
  </g>
  <g fill="#8fff22" filter="url(#g)" opacity=".88">
    <circle cx="244" cy="582" r="6"/><circle cx="482" cy="524" r="7"/><circle cx="880" cy="540" r="6"/><circle cx="1306" cy="500" r="7"/><circle cx="1558" cy="558" r="6"/>
  </g>
</svg>
