<svg xmlns="http://www.w3.org/2000/svg" viewBox="0 0 1704 786">
  <defs>
    <linearGradient id="bg" x1="0" y1="0" x2="0" y2="1"><stop stop-color="#13080b"/><stop offset=".5" stop-color="#08090a"/><stop offset="1" stop-color="#030202"/></linearGradient>
    <linearGradient id="floor" x1="0" y1="0" x2="0" y2="1"><stop stop-color="#2a211b"/><stop offset="1" stop-color="#0a0807"/></linearGradient>
    <filter id="g"><feGaussianBlur stdDeviation="5" result="b"/><feMerge><feMergeNode in="b"/><feMergeNode in="SourceGraphic"/></feMerge></filter>
  </defs>
  <rect width="1704" height="786" fill="url(#bg)"/>
  <path d="M0 520 C225 420 472 414 750 470 C1038 528 1280 404 1704 438 L1704 786 L0 786 Z" fill="url(#floor)"/>
  <g stroke="#4a3b2a" stroke-width="8" opacity=".82">
    <path d="M80 130 L620 74 L620 468 L80 546 Z" fill="#080707"/>
    <path d="M1055 92 L1632 148 L1632 524 L1055 438 Z" fill="#080707"/>
  </g>
  <g stroke="#b08b3c" stroke-width="5" opacity=".75">
    <path d="M120 176 L582 132 M120 244 L582 202 M120 312 L582 274 M120 382 L582 350"/>
    <path d="M1100 148 L1588 188 M1100 222 L1588 258 M1100 296 L1588 330 M1100 370 L1588 404"/>
  </g>
  <g stroke="#3b342a" stroke-width="4" opacity=".92">
    <path d="M168 140 L168 530 M254 132 L254 520 M340 123 L340 510 M426 113 L426 498 M512 104 L512 486"/>
    <path d="M1150 120 L1150 456 M1244 130 L1244 470 M1338 140 L1338 484 M1432 150 L1432 498 M1526 160 L1526 512"/>
  </g>
  <g fill="none" stroke="#8fff22" stroke-width="4" filter="url(#g)" opacity=".55">
    <path d="M0 662 C240 610 500 610 760 666 C1014 720 1290 610 1704 652"/>
    <path d="M708 644 C790 602 900 608 976 648 C884 690 794 688 708 644 Z"/>
  </g>
  <g transform="translate(1252 188)" stroke="#caa24a" stroke-width="8" fill="none">
    <path d="M0 0 C72 56 192 48 264 0"/>
    <path d="M28 36 L78 160 M238 34 L188 160"/>
    <ellipse cx="132" cy="172" rx="92" ry="19" stroke="#c04cff"/>
  </g>
  <g fill="#b08b3c" opacity=".78">
    <circle cx="706" cy="108" r="9"/><circle cx="1012" cy="126" r="9"/><circle cx="852" cy="82" r="12"/>
  </g>
</svg>
