<svg xmlns="http://www.w3.org/2000/svg" viewBox="0 0 512 512">
  <defs><filter id="g"><feGaussianBlur stdDeviation="8" result="b"/><feMerge><feMergeNode in="b"/><feMergeNode in="SourceGraphic"/></feMerge></filter></defs>
  <ellipse cx="256" cy="468" rx="148" ry="30" fill="#000" opacity=".42"/>
  <path d="M138 382 C104 250 150 112 264 84 C384 56 456 190 420 330 C390 452 184 484 138 382 Z" fill="#251f25" stroke="#10090d" stroke-width="18"/>
  <ellipse cx="272" cy="206" rx="116" ry="42" fill="none" stroke="#d7a945" stroke-width="18" filter="url(#g)"/>
  <path d="M192 206 C214 306 334 306 356 206" fill="none" stroke="#c04cff" stroke-width="9"/>
  <circle cx="232" cy="268" r="12" fill="#8fff22"/><circle cx="312" cy="264" r="12" fill="#8fff22"/>
  <path d="M176 384 L124 486 M342 388 L392 486" stroke="#10090d" stroke-width="24" stroke-linecap="round"/>
  <path d="M82 280 C128 238 176 232 216 270 M430 246 C390 258 362 292 356 334" fill="none" stroke="#10090d" stroke-width="20" stroke-linecap="round"/>
</svg>
