<svg xmlns="http://www.w3.org/2000/svg" viewBox="0 0 1704 786">
  <defs>
    <linearGradient id="sky" x1="0" y1="0" x2="0" y2="1"><stop stop-color="#17051f"/><stop offset=".48" stop-color="#0b0711"/><stop offset="1" stop-color="#030205"/></linearGradient>
    <linearGradient id="court" x1="0" y1="0" x2="0" y2="1"><stop stop-color="#22161a"/><stop offset="1" stop-color="#090709"/></linearGradient>
    <filter id="glow"><feGaussianBlur stdDeviation="6" result="b"/><feMerge><feMergeNode in="b"/><feMergeNode in="SourceGraphic"/></feMerge></filter>
  </defs>
  <rect width="1704" height="786" fill="url(#sky)"/>
  <path d="M0 534 C210 438 368 420 612 456 C922 500 1114 460 1392 414 C1530 390 1624 398 1704 434 L1704 786 L0 786 Z" fill="url(#court)"/>
  <g opacity=".42" fill="none" stroke="#7cff22" stroke-width="4" filter="url(#glow)">
    <path d="M0 651 C190 612 370 604 575 632 C838 668 1027 623 1278 590 C1460 566 1592 580 1704 612"/>
    <path d="M250 758 L520 518 M615 786 L760 486 M1010 786 L960 482 M1368 786 L1266 486"/>
    <path d="M732 646 C790 604 880 602 942 643 C882 678 792 678 732 646 Z"/>
  </g>
  <g opacity=".68" fill="none" stroke="#e5d0a5" stroke-width="5">
    <ellipse cx="803" cy="650" rx="285" ry="75"/>
    <path d="M100 716 C380 650 615 642 855 684 M1065 682 C1256 642 1452 636 1660 675"/>
    <path d="M1360 474 L1510 442 L1510 572 L1360 598 Z"/>
  </g>
  <g transform="translate(1348 278)">
    <path d="M0 0 L172 -48 L172 108 L0 138 Z" fill="#160d12" stroke="#b58a3a" stroke-width="7"/>
    <ellipse cx="86" cy="122" rx="80" ry="18" fill="none" stroke="#c04cff" stroke-width="8"/>
    <path d="M28 122 C52 190 120 190 144 122" fill="none" stroke="#e7b4ff" stroke-width="5" opacity=".78"/>
  </g>
  <g fill="#070507" stroke="#2b1735" stroke-width="4" opacity=".86">
    <path d="M50 500 L390 376 L582 430 L154 560 Z"/>
    <path d="M1010 395 L1325 292 L1512 336 L1112 460 Z"/>
  </g>
  <g fill="#86ff24" filter="url(#glow)" opacity=".86">
    <circle cx="150" cy="575" r="7"/><circle cx="322" cy="512" r="5"/><circle cx="615" cy="550" r="6"/>
    <circle cx="1104" cy="508" r="5"/><circle cx="1224" cy="448" r="6"/><circle cx="1546" cy="493" r="7"/>
  </g>
</svg>
