<svg xmlns="http://www.w3.org/2000/svg" viewBox="0 0 256 256">
  <defs><filter id="g"><feGaussianBlur stdDeviation="5" result="b"/><feMerge><feMergeNode in="b"/><feMergeNode in="SourceGraphic"/></feMerge></filter></defs>
  <ellipse cx="128" cy="218" rx="62" ry="15" fill="#000" opacity=".35"/>
  <path d="M74 168 C58 104 90 54 138 58 C188 62 204 120 180 174 C158 224 88 216 74 168 Z" fill="#6fd8ff" stroke="#120d10" stroke-width="10"/>
  <ellipse cx="132" cy="92" rx="62" ry="20" fill="none" stroke="#cceeff" stroke-width="10" filter="url(#g)"/>
  <path d="M90 92 C104 136 156 136 174 92" fill="none" stroke="#9eeaff" stroke-width="6"/>
  <path d="M70 136 C42 146 44 182 76 190 M182 136 C216 146 218 184 188 194" fill="none" stroke="#120d10" stroke-width="12" stroke-linecap="round"/>
  <circle cx="116" cy="126" r="6" fill="#120d10"/><circle cx="150" cy="126" r="6" fill="#120d10"/>
  <path d="M100 180 L82 224 M152 182 L172 224" stroke="#120d10" stroke-width="12" stroke-linecap="round"/>
  <path d="M62 44 L82 76 M196 42 L174 76 M128 24 L128 62" stroke="#73dfff" stroke-width="7" stroke-linecap="round" filter="url(#g)"/>
</svg>
