<svg xmlns="http://www.w3.org/2000/svg" viewBox="0 0 256 256">
  <defs><filter id="g"><feGaussianBlur stdDeviation="4" result="b"/><feMerge><feMergeNode in="b"/><feMergeNode in="SourceGraphic"/></feMerge></filter></defs>
  <ellipse cx="128" cy="212" rx="58" ry="15" fill="#000" opacity=".35"/>
  <path d="M87 178 C65 134 72 77 122 56 C173 35 203 80 194 132 C184 192 115 222 87 178 Z" fill="#9fe024" stroke="#130b16" stroke-width="10"/>
  <path d="M82 132 C50 128 40 104 64 86 M170 176 C214 178 224 204 188 218" fill="none" stroke="#130b16" stroke-width="12" stroke-linecap="round"/>
  <path d="M104 182 L82 222 M148 184 L168 224" fill="none" stroke="#130b16" stroke-width="13" stroke-linecap="round"/>
  <path d="M96 102 L166 72 M86 132 L174 112 M96 162 L164 142" stroke="#d8ff44" stroke-width="5" opacity=".75"/>
  <circle cx="121" cy="105" r="7" fill="#100914"/><circle cx="153" cy="98" r="7" fill="#100914"/>
  <path d="M42 42 L83 32 L70 58 L108 50" fill="none" stroke="#9fe024" stroke-width="6" filter="url(#g)"/>
</svg>
