<svg xmlns="http://www.w3.org/2000/svg" viewBox="0 0 256 256">
  <defs><filter id="g"><feGaussianBlur stdDeviation="6" result="b"/><feMerge><feMergeNode in="b"/><feMergeNode in="SourceGraphic"/></feMerge></filter></defs>
  <ellipse cx="128" cy="214" rx="58" ry="14" fill="#000" opacity=".35"/>
  <path d="M82 174 C62 116 86 58 134 54 C184 50 204 110 184 168 C166 220 100 224 82 174 Z" fill="#b980ff" stroke="#120d10" stroke-width="10"/>
  <path d="M60 96 C88 76 116 76 132 102 L132 178 C108 156 82 154 58 166 Z" fill="#221129" stroke="#8fe8ff" stroke-width="5"/>
  <path d="M132 102 C154 76 184 78 208 98 L198 168 C174 154 154 156 132 178 Z" fill="#160d1d" stroke="#8fe8ff" stroke-width="5"/>
  <circle cx="114" cy="122" r="6" fill="#100914"/><circle cx="154" cy="122" r="6" fill="#100914"/>
  <path d="M36 54 C78 42 86 72 128 58 C170 44 184 72 220 58" fill="none" stroke="#b980ff" stroke-width="7" opacity=".8" filter="url(#g)"/>
  <path d="M92 182 L78 222 M158 182 L176 222" stroke="#120d10" stroke-width="12" stroke-linecap="round"/>
</svg>
