<svg xmlns="http://www.w3.org/2000/svg" viewBox="0 0 256 256">
  <defs><filter id="g"><feGaussianBlur stdDeviation="5" result="b"/><feMerge><feMergeNode in="b"/><feMergeNode in="SourceGraphic"/></feMerge></filter></defs>
  <ellipse cx="132" cy="219" rx="72" ry="18" fill="#314c10" opacity=".78" filter="url(#g)"/>
  <path d="M70 166 C56 106 88 58 138 62 C188 66 210 122 184 174 C160 220 84 212 70 166 Z" fill="#6fbe30" stroke="#120d10" stroke-width="10"/>
  <path d="M86 92 C120 116 162 112 184 86 C164 58 112 50 86 92 Z" fill="#21111b"/>
  <path d="M68 146 C40 160 42 190 74 196 M182 142 C218 148 222 184 190 198" fill="none" stroke="#120d10" stroke-width="12" stroke-linecap="round"/>
  <circle cx="116" cy="124" r="6" fill="#120d10"/><circle cx="150" cy="124" r="6" fill="#120d10"/>
  <path d="M101 154 C120 166 144 166 164 154" fill="none" stroke="#25370e" stroke-width="6" stroke-linecap="round"/>
  <path d="M108 184 L94 224 M154 184 L170 224" stroke="#120d10" stroke-width="12" stroke-linecap="round"/>
  <path d="M70 58 C92 32 126 26 158 34" fill="none" stroke="#9fe024" stroke-width="7" filter="url(#g)"/>
</svg>
