<svg xmlns="http://www.w3.org/2000/svg" viewBox="0 0 256 256">
  <ellipse cx="128" cy="218" rx="66" ry="16" fill="#000" opacity=".38"/>
  <path d="M65 197 L74 53 L180 38 L194 198 Z" fill="#3b352f" stroke="#120d10" stroke-width="10"/>
  <path d="M88 76 L162 64 L171 174 L80 184 Z" fill="#171315" stroke="#d7a945" stroke-width="5"/>
  <path d="M102 100 L148 92 L154 148 L96 156 Z" fill="#4d432f"/>
  <path d="M120 34 L134 10 L150 34" fill="#d7a945" stroke="#120d10" stroke-width="6"/>
  <path d="M66 122 C35 132 40 174 75 180 M190 118 C220 128 218 168 190 176" fill="none" stroke="#120d10" stroke-width="12" stroke-linecap="round"/>
  <circle cx="113" cy="114" r="6" fill="#9fe024"/><circle cx="145" cy="110" r="6" fill="#9fe024"/>
  <path d="M92 188 L74 224 M164 190 L186 224" stroke="#120d10" stroke-width="12" stroke-linecap="round"/>
</svg>
