<svg xmlns="http://www.w3.org/2000/svg" viewBox="0 0 256 256">
  <defs><filter id="g"><feGaussianBlur stdDeviation="5" result="b"/><feMerge><feMergeNode in="b"/><feMergeNode in="SourceGraphic"/></feMerge></filter></defs>
  <ellipse cx="128" cy="218" rx="62" ry="16" fill="#000" opacity=".35"/>
  <path d="M76 170 C58 110 88 60 136 62 C188 64 204 122 180 174 C158 222 92 218 76 170 Z" fill="#d8ff44" stroke="#120d10" stroke-width="10"/>
  <path d="M54 58 L118 36 L102 106 L154 70 L198 102 L156 142 L206 176 L122 168 L84 204 L88 136 Z" fill="#22161d" stroke="#d7a945" stroke-width="6"/>
  <path d="M78 82 L104 104 M122 54 L140 92 M154 84 L142 134 M108 136 L150 150" stroke="#8f8068" stroke-width="4"/>
  <circle cx="116" cy="120" r="6" fill="#120d10"/><circle cx="150" cy="118" r="6" fill="#120d10"/>
  <path d="M70 144 C38 150 42 184 76 194 M178 146 C216 152 218 188 186 198" fill="none" stroke="#120d10" stroke-width="12" stroke-linecap="round"/>
  <path d="M104 182 L86 224 M154 182 L174 224" stroke="#120d10" stroke-width="12" stroke-linecap="round"/>
  <circle cx="198" cy="78" r="8" fill="#9fe024" filter="url(#g)"/>
</svg>
