<svg xmlns="http://www.w3.org/2000/svg" viewBox="0 0 512 512">
  <defs><filter id="g"><feGaussianBlur stdDeviation="8" result="b"/><feMerge><feMergeNode in="b"/><feMergeNode in="SourceGraphic"/></feMerge></filter></defs>
  <ellipse cx="256" cy="468" rx="150" ry="30" fill="#000" opacity=".42"/>
  <path d="M138 382 C104 250 150 112 264 84 C384 56 456 190 420 330 C390 452 184 484 138 382 Z" fill="#2a2525" stroke="#10090d" stroke-width="18"/>
  <path d="M132 138 L224 94 L288 144 L382 98 L420 178 L336 234 L242 198 L158 254 Z" fill="#181112" stroke="#d7a945" stroke-width="12"/>
  <path d="M158 158 L198 206 M224 104 L236 188 M286 148 L318 214 M374 112 L344 210" stroke="#8f8068" stroke-width="7"/>
  <ellipse cx="272" cy="244" rx="112" ry="38" fill="none" stroke="#c04cff" stroke-width="18" filter="url(#g)"/>
  <path d="M194 244 C216 336 334 336 356 244" fill="none" stroke="#e6c068" stroke-width="9"/>
  <circle cx="232" cy="286" r="12" fill="#8fff22"/><circle cx="312" cy="282" r="12" fill="#8fff22"/>
  <path d="M174 384 L124 486 M342 388 L392 486" stroke="#10090d" stroke-width="24" stroke-linecap="round"/>
  <path d="M82 280 C128 238 176 232 216 270 M430 246 C390 258 362 292 356 334" fill="none" stroke="#10090d" stroke-width="20" stroke-linecap="round"/>
</svg>
