<svg xmlns="http://www.w3.org/2000/svg" viewBox="0 0 512 512">
  <defs><filter id="g"><feGaussianBlur stdDeviation="8" result="b"/><feMerge><feMergeNode in="b"/><feMergeNode in="SourceGraphic"/></feMerge></filter></defs>
  <ellipse cx="256" cy="466" rx="148" ry="30" fill="#000" opacity=".42"/>
  <path d="M136 386 C112 250 154 112 264 88 C382 62 440 194 414 332 C392 456 174 484 136 386 Z" fill="#152630" stroke="#090d12" stroke-width="18"/>
  <path d="M130 108 L390 86 L404 206 L142 226 Z" fill="#071014" stroke="#73dfff" stroke-width="14"/>
  <path d="M174 138 L224 134 L226 178 L176 182 Z M290 128 L346 124 L348 170 L292 174 Z" fill="#6fd8ff" filter="url(#g)"/>
  <path d="M182 254 C214 230 330 226 360 250 C344 326 196 330 182 254 Z" fill="#0b1218" stroke="#cceeff" stroke-width="9"/>
  <circle cx="224" cy="276" r="12" fill="#d8ff44"/><circle cx="314" cy="272" r="12" fill="#d8ff44"/>
  <path d="M174 382 L118 486 M340 384 L394 486" stroke="#090d12" stroke-width="24" stroke-linecap="round"/>
  <path d="M100 276 C64 242 70 198 118 184 M408 244 C462 224 486 268 446 312" fill="none" stroke="#090d12" stroke-width="20" stroke-linecap="round"/>
  <path d="M196 70 C174 34 218 26 204 6 M320 64 C292 24 348 18 330 0" stroke="#6fd8ff" stroke-width="13" stroke-linecap="round" filter="url(#g)"/>
</svg>
