<svg xmlns="http://www.w3.org/2000/svg" viewBox="0 0 512 512">
  <defs><filter id="g"><feGaussianBlur stdDeviation="8" result="b"/><feMerge><feMergeNode in="b"/><feMergeNode in="SourceGraphic"/></feMerge></filter></defs>
  <ellipse cx="258" cy="468" rx="144" ry="30" fill="#000" opacity=".42"/>
  <path d="M160 384 C116 250 154 108 268 88 C390 66 450 210 398 342 C356 448 206 480 160 384 Z" fill="#342b2a" stroke="#10090d" stroke-width="18"/>
  <path d="M146 170 L92 106 L128 82 L206 150" fill="#d7a945" stroke="#10090d" stroke-width="14"/>
  <path d="M366 132 L444 70 L470 102 L416 180" fill="#d7a945" stroke="#10090d" stroke-width="14"/>
  <ellipse cx="278" cy="190" rx="106" ry="36" fill="none" stroke="#e6c068" stroke-width="18" filter="url(#g)"/>
  <path d="M210 190 C226 270 330 270 350 190" fill="none" stroke="#c04cff" stroke-width="10"/>
  <circle cx="238" cy="248" r="12" fill="#8fff22"/><circle cx="306" cy="246" r="12" fill="#8fff22"/>
  <path d="M204 326 C246 348 306 348 354 322" fill="none" stroke="#d7a945" stroke-width="12" stroke-linecap="round"/>
  <path d="M176 386 L126 486 M334 394 L390 486" stroke="#10090d" stroke-width="24" stroke-linecap="round"/>
  <path d="M70 260 L146 224 M428 228 L490 178" stroke="#10090d" stroke-width="20" stroke-linecap="round"/>
</svg>
