<svg xmlns="http://www.w3.org/2000/svg" viewBox="0 0 512 512">
  <defs><filter id="g"><feGaussianBlur stdDeviation="8" result="b"/><feMerge><feMergeNode in="b"/><feMergeNode in="SourceGraphic"/></feMerge></filter></defs>
  <ellipse cx="256" cy="466" rx="150" ry="30" fill="#000" opacity=".42"/>
  <path d="M142 380 C104 248 150 112 260 86 C382 58 450 190 416 328 C386 452 182 484 142 380 Z" fill="#2b2534" stroke="#09070d" stroke-width="18"/>
  <path d="M166 154 C198 86 318 78 360 148 C330 196 206 202 166 154 Z" fill="#d6c6a0" stroke="#09070d" stroke-width="12"/>
  <circle cx="226" cy="150" r="15" fill="#09070d"/><circle cx="304" cy="148" r="15" fill="#09070d"/>
  <path d="M228 198 L304 198 M244 224 L288 224" stroke="#09070d" stroke-width="10" stroke-linecap="round"/>
  <path d="M118 260 L70 218 L96 190 L162 236 M398 236 L458 184 L486 216 L420 278" fill="#d7a945" stroke="#09070d" stroke-width="12"/>
  <path d="M198 290 C230 324 292 324 328 288" fill="none" stroke="#8fff22" stroke-width="11" stroke-linecap="round" filter="url(#g)"/>
  <path d="M178 382 L124 486 M338 382 L392 486" stroke="#09070d" stroke-width="24" stroke-linecap="round"/>
  <path d="M86 80 L146 144 L112 142 L184 230 M430 76 L368 154 L404 148 L336 246" fill="none" stroke="#ffe14d" stroke-width="12" stroke-linecap="round" filter="url(#g)"/>
</svg>
